<?xml version="1.0" encoding="UTF-8"?>
<svg id="_图层_1" data-name="图层 1" xmlns="http://www.w3.org/2000/svg" xmlns:xlink="http://www.w3.org/1999/xlink" viewBox="0 0 819.84 1000.35">
  <defs>
    <style>
      .cls-1 {
        fill: #ffdcee;
      }

      .cls-2, .cls-3 {
        fill: #434260;
      }

      .cls-4 {
        clip-path: url(#clippath);
      }

      .cls-5 {
        fill: none;
      }

      .cls-3 {
        font-family: STFangsong, STFangsong;
        font-size: 250px;
      }
    </style>
    <clipPath id="clippath">
      <rect class="cls-5" width="819.84" height="820.72"/>
    </clipPath>
  </defs>
  <g>
    <g class="cls-4">
      <path class="cls-1" d="m-.12,549.38c0,95.13,50.74,183.02,133.12,230.58,82.37,47.56,183.87,47.56,266.25,0,82.37-47.56,133.12-135.46,133.11-230.58,0-95.12-50.74-183.02-133.11-230.58-82.38-47.56-183.87-47.56-266.25,0C50.62,366.36-.12,454.26-.12,549.38H-.12Zm0,0"/>
    </g>
    <path class="cls-2" d="m706.44,819.72H194.44c-62.16-.11-112.53-50.48-112.64-112.64V113.16C81.91,51,132.28.63,194.44.52h413.08c18.91-.16,37.11,7.21,50.59,20.48l151.75,151.76c5.99,5.87,9.32,13.94,9.22,22.33v512c-.11,62.16-50.48,112.53-112.64,112.64h0ZM194.44,61.96c-28.28,0-51.2,22.92-51.2,51.2v593.92c0,13.58,5.4,26.6,15,36.21,9.6,9.6,22.62,15,36.2,15h512c13.58,0,26.6-5.39,36.2-15,9.6-9.6,15-22.63,15-36.21V207.78l-143.36-143.36c-1.88-1.61-4.28-2.48-6.76-2.46H194.44Zm0,0"/>
  </g>
  <text class="cls-3" transform="translate(185.49 484.3) scale(1.2 1)"><tspan x="0" y="0">CIE</tspan></text>
</svg>