<?xml version="1.0" standalone="no"?><!DOCTYPE svg PUBLIC "-//W3C//DTD SVG 1.1//EN" "http://www.w3.org/Graphics/SVG/1.1/DTD/svg11.dtd"><svg t="1700106945087" class="icon" viewBox="0 0 1024 1024" version="1.1" xmlns="http://www.w3.org/2000/svg" p-id="11726" xmlns:xlink="http://www.w3.org/1999/xlink" width="200" height="200"><path d="M512 1002.666667C241.066667 1002.666667 21.333333 782.933333 21.333333 512S241.066667 21.333333 512 21.333333s490.666667 219.733333 490.666667 490.666667-219.733333 490.666667-490.666667 490.666667z m0-938.666667C264.533333 64 64 264.533333 64 512s200.533333 448 448 448 448-200.533333 448-448S759.466667 64 512 64z" fill="#302E30" p-id="11727"></path><path d="M960 588.8h-2.133333l-256-19.2c-19.2-2.133333-34.133333-17.066667-34.133334-36.266667v-44.8c0-19.2 14.933333-36.266667 34.133334-36.266666l256-19.2c10.666667 0 21.333333 2.133333 27.733333 10.666666 8.533333 6.4 12.8 17.066667 12.8 27.733334V554.666667c0 10.666667-4.266667 21.333333-12.8 27.733333-6.4 2.133333-17.066667 6.4-25.6 6.4z m0-123.733333l-256 19.2c-2.133333 0-4.266667 2.133333-4.266667 4.266666V533.333333c0 2.133333 2.133333 4.266667 4.266667 4.266667l256 19.2c2.133333 0 4.266667 0 4.266667-2.133333 0 0 2.133333-2.133333 2.133333-4.266667V469.333333c0-2.133333 0-4.266667-2.133333-4.266666H960zM627.2 394.666667c-6.4 0-12.8-2.133333-19.2-4.266667l-40.533333-23.466667c-17.066667-10.666667-23.466667-32-14.933334-49.066666l113.066667-230.4c4.266667-8.533333 12.8-17.066667 23.466667-19.2 10.666667-2.133333 21.333333-2.133333 29.866666 4.266666L789.333333 110.933333c8.533333 4.266667 14.933333 14.933333 17.066667 23.466667s0 21.333333-6.4 29.866667l-142.933333 213.333333c-6.4 10.666667-19.2 17.066667-29.866667 17.066667z m-4.266667-34.133334c2.133333 2.133333 6.4 0 6.4-2.133333l142.933334-213.333333c2.133333-2.133333 0-4.266667 0-4.266667s0-2.133333-2.133334-4.266667l-70.4-40.533333h-4.266666s-2.133333 0-4.266667 2.133333l-113.066667 230.4c-2.133333 2.133333 0 6.4 2.133334 6.4l42.666666 25.6zM394.666667 394.666667c-12.8 0-23.466667-6.4-32-17.066667l-142.933334-213.333333c-6.4-8.533333-8.533333-19.2-6.4-29.866667 2.133333-10.666667 8.533333-19.2 17.066667-23.466667l70.4-40.533333c8.533333-4.266667 19.2-6.4 29.866667-4.266667 10.666667 2.133333 19.2 10.666667 23.466666 19.2l113.066667 230.4c8.533333 17.066667 2.133333 38.4-14.933333 49.066667l-40.533334 23.466667c-4.266667 4.266667-10.666667 6.4-17.066666 6.4zM322.133333 98.133333H320l-70.4 40.533334c-2.133333 0-2.133333 2.133333-2.133333 4.266666v4.266667l142.933333 213.333333c2.133333 2.133333 4.266667 2.133333 6.4 2.133334l40.533333-23.466667c2.133333-2.133333 4.266667-4.266667 2.133334-6.4L326.4 102.4c0-2.133333-2.133333-2.133333-4.266667-4.266667 2.133333 0 0 0 0 0z m123.733334 256zM64 590.933333c-8.533333 0-19.2-4.266667-25.6-10.666666-8.533333-6.4-12.8-17.066667-12.8-27.733334V469.333333c0-10.666667 4.266667-21.333333 12.8-27.733333 8.533333-6.4 17.066667-10.666667 27.733333-10.666667l256 19.2c19.2 2.133333 34.133333 17.066667 34.133334 36.266667v44.8c0 19.2-14.933333 36.266667-34.133334 36.266667l-256 19.2c0 4.266667-2.133333 4.266667-2.133333 4.266666z m0-123.733333c-2.133333 0-2.133333 0-4.266667 2.133333 0 0-2.133333 2.133333-2.133333 4.266667V554.666667c0 2.133333 0 4.266667 2.133333 4.266666 0 0 2.133333 2.133333 4.266667 2.133334l256-19.2c2.133333 0 4.266667-2.133333 4.266667-4.266667V490.666667c0-2.133333-2.133333-4.266667-4.266667-4.266667l-256-19.2zM324.266667 957.866667c-6.4 0-12.8-2.133333-19.2-4.266667L234.666667 913.066667c-8.533333-4.266667-14.933333-14.933333-17.066667-23.466667-2.133333-10.666667 0-21.333333 6.4-29.866667l142.933333-213.333333c10.666667-17.066667 32-21.333333 49.066667-10.666667l40.533333 23.466667c17.066667 10.666667 23.466667 32 14.933334 49.066667L358.4 938.666667c-4.266667 8.533333-12.8 17.066667-23.466667 19.2h-10.666666zM396.8 661.333333c-2.133333 0-4.266667 0-4.266667 2.133334l-142.933333 213.333333c-2.133333 2.133333 0 4.266667 0 4.266667s0 2.133333 2.133333 4.266666l70.4 40.533334h4.266667s2.133333 0 4.266667-2.133334l113.066666-230.4c2.133333-2.133333 0-6.4-2.133333-6.4l-40.533333-23.466666c-2.133333 0-2.133333-2.133333-4.266667-2.133334zM701.866667 957.866667c-4.266667 0-6.4 0-10.666667-2.133334-10.666667-2.133333-19.2-10.666667-23.466667-19.2L554.666667 706.133333c-8.533333-17.066667-2.133333-38.4 14.933333-49.066666l40.533333-23.466667c17.066667-10.666667 38.4-4.266667 49.066667 10.666667l142.933333 213.333333c6.4 8.533333 8.533333 19.2 6.4 29.866667-2.133333 10.666667-8.533333 19.2-17.066666 23.466666l-70.4 40.533334c-6.4 4.266667-12.8 6.4-19.2 6.4zM629.333333 661.333333h-2.133333l-38.4 23.466667c-2.133333 2.133333-4.266667 4.266667-2.133333 6.4l113.066666 230.4c0 2.133333 2.133333 2.133333 4.266667 2.133333h4.266667l70.4-40.533333c2.133333 0 2.133333-2.133333 2.133333-4.266667V874.666667l-142.933333-213.333334h-8.533334z m-51.2 8.533334z" fill="#302E30" p-id="11728"></path><path d="M512 595.2c-46.933333 0-85.333333-38.4-85.333333-85.333333s38.4-85.333333 85.333333-85.333334 85.333333 38.4 85.333333 85.333334c0 49.066667-38.4 85.333333-85.333333 85.333333z m0-128c-23.466667 0-42.666667 19.2-42.666667 42.666667s19.2 42.666667 42.666667 42.666666 42.666667-19.2 42.666667-42.666666-19.2-42.666667-42.666667-42.666667z" fill="#2186F4" p-id="11729"></path><path d="M509.866667 456.533333c-12.8 0-21.333333-8.533333-21.333334-21.333333v-108.8c0-12.8 8.533333-21.333333 21.333334-21.333333s21.333333 8.533333 21.333333 21.333333v108.8c0 12.8-8.533333 21.333333-21.333333 21.333333z" fill="#2186F4" p-id="11730"></path></svg>