<?xml version="1.0" standalone="no"?><!DOCTYPE svg PUBLIC "-//W3C//DTD SVG 1.1//EN" "http://www.w3.org/Graphics/SVG/1.1/DTD/svg11.dtd"><svg t="1699327304244" class="icon" viewBox="0 0 1024 1024" version="1.1" xmlns="http://www.w3.org/2000/svg" p-id="15686" xmlns:xlink="http://www.w3.org/1999/xlink" width="200" height="200"><path d="M484 176h56v56h-56zM729.802 254.607l39.597 39.597-39.597 39.598-39.598-39.598zM848 484v56h-56v-56zM333.828 294.211l-39.597 39.598-39.598-39.598 39.598-39.597zM232 484v56h-56v-56zM512 596c-5.4 0-10.8-1.5-15.5-4.7-12.9-8.6-16.4-26-7.8-38.8l112-168c8.6-12.9 26.1-16.2 38.8-7.8 12.9 8.6 16.4 26 7.8 38.8l-112 168C529.9 591.6 521 596 512 596z" p-id="15687"></path><path d="M512 120c216.1 0 392 175.9 392 392S728.1 904 512 904 120 728.1 120 512s175.9-392 392-392m0-56C264.6 64 64 264.6 64 512s200.6 448 448 448 448-200.6 448-448S759.4 64 512 64z" p-id="15688"></path></svg>