<?xml version="1.0" standalone="no"?><!DOCTYPE svg PUBLIC "-//W3C//DTD SVG 1.1//EN" "http://www.w3.org/Graphics/SVG/1.1/DTD/svg11.dtd"><svg t="1703483710121" class="icon" viewBox="0 0 1024 1024" version="1.1" xmlns="http://www.w3.org/2000/svg" p-id="9748" xmlns:xlink="http://www.w3.org/1999/xlink" width="200" height="200"><path d="M511.264506 955.631004a442.319905 442.319905 0 0 1-313.576417-129.958654 441.936169 441.936169 0 0 1-129.958653-313.640372A442.064081 442.064081 0 0 1 197.624133 198.455562 441.872213 441.872213 0 0 1 511.264506 68.432952a442.064081 442.064081 0 0 1 313.576416 129.958654 441.936169 441.936169 0 0 1 130.022609 313.640372 442.191993 442.191993 0 0 1-129.958653 313.576416 442.191993 442.191993 0 0 1-313.640372 130.02261z m0-813.904441A368.002998 368.002998 0 0 0 249.428518 250.259946a368.002998 368.002998 0 0 0-108.533383 261.899944c0 98.939979 38.565486 191.868091 108.533383 261.899944A368.002998 368.002998 0 0 0 511.264506 882.593217a367.939042 367.939042 0 0 0 261.899943-108.533383 368.002998 368.002998 0 0 0 108.533384-261.899944 367.939042 367.939042 0 0 0-108.533384-261.899944 367.49135 367.49135 0 0 0-261.899943-108.533383z" fill="#000000" p-id="9749"></path><path d="M511.392418 715.220286a203.508088 203.508088 0 0 1-203.252264-203.252264A203.380176 203.380176 0 0 1 511.392418 308.907626a203.380176 203.380176 0 0 1 203.188308 203.124352 203.508088 203.508088 0 0 1-203.188308 203.252264z m0-333.33883A130.406346 130.406346 0 0 0 381.17794 512.095934c0 71.758666 58.391856 130.214478 130.214478 130.214478a130.406346 130.406346 0 0 0 130.150521-130.214478 130.278434 130.278434 0 0 0-130.150521-130.214478z m-1.151209-153.174692a36.454937 36.454937 0 0 0 36.454937-36.454937V36.966585a36.454937 36.454937 0 1 0-72.97383 0v155.15733c0 20.210106 16.308788 36.518893 36.454937 36.518893z m1.151209 566.394604a36.454937 36.454937 0 0 0-36.518894 36.518893v155.221285a36.454937 36.454937 0 1 0 72.973831 0v-155.221285a36.454937 36.454937 0 0 0-36.454937-36.518893zM228.259072 512.47967a36.454937 36.454937 0 0 0-36.518893-36.518893H36.454937a36.454937 36.454937 0 1 0 0 73.037786h155.221286a36.518893 36.518893 0 0 0 36.454937-36.518893z m566.202736-1.151208c0 20.210106 16.308788 36.518893 36.518893 36.518893h155.221285a36.454937 36.454937 0 1 0 0-73.037787h-155.221285a36.646805 36.646805 0 0 0-36.454937 36.518894z" fill="#000000" p-id="9750"></path></svg>