<?xml version="1.0" standalone="no"?><!DOCTYPE svg PUBLIC "-//W3C//DTD SVG 1.1//EN" "http://www.w3.org/Graphics/SVG/1.1/DTD/svg11.dtd"><svg t="1703483696952" class="icon" viewBox="0 0 1024 1024" version="1.1" xmlns="http://www.w3.org/2000/svg" p-id="7896" xmlns:xlink="http://www.w3.org/1999/xlink" width="200" height="200"><path d="M437.4528 914.8416l-11.0592 60.416c23.9616 4.42368 48.5376 7.00416 73.64608 7.61856L507.904 983.04l0.53248-61.44a412.01664 412.01664 0 0 1-70.98368-6.71744z m212.91008-17.2032a406.24128 406.24128 0 0 1-68.8128 18.10432l10.32192 60.53888a467.68128 467.68128 0 0 0 79.17568-20.76672l-20.6848-57.83552z m-346.27584-32.64512l-31.21152 52.92032a468.992 468.992 0 0 0 73.89184 35.34848l21.54496-57.5488a407.552 407.552 0 0 1-64.22528-30.72z m468.5824-37.02784c-18.35008 15.1552-37.96992 28.672-58.65472 40.42752l30.3104 53.4528a472.10496 472.10496 0 0 0 67.50208-46.53056l-39.15776-47.34976zM195.7888 772.34176l-47.39072 39.07584c17.408 21.13536 36.61824 40.71424 57.38496 58.49088L245.76 823.21408a412.4672 412.4672 0 0 1-49.9712-50.87232z m669.2864-52.46976c-12.0832 20.48-25.96864 39.89504-41.41056 57.99936l46.6944 39.89504c17.73568-20.76672 33.66912-43.04896 47.63648-66.68288l-52.92032-31.21152zM124.68224 645.65248l-58.08128 20.02944c9.0112 26.05056 20.19328 51.03616 33.3824 74.79296l53.69856-29.81888a407.06048 407.06048 0 0 1-28.99968-65.00352z m790.48704-60.86656a406.15936 406.15936 0 0 1-18.6368 68.68992l57.63072 21.25824c9.37984-25.3952 16.5888-51.85536 21.46304-79.13472l-60.45696-10.81344zM41.04192 505.93792L40.96 512c0 26.17344 2.12992 51.8144 6.22592 76.84096l60.6208-9.95328a412.79488 412.79488 0 0 1-5.40672-65.82272v-6.3488l-61.35808-0.77824zM983.04 512c0-27.60704-2.37568-54.64064-6.92224-80.896l-60.53888 10.48576c3.93216 22.69184 5.9392 45.8752 6.02112 69.26336v2.90816l61.39904 0.24576L983.04 512zM71.22944 345.4976a467.51744 467.51744 0 0 0-22.1184 78.92992l60.37504 11.30496a406.07744 406.07744 0 0 1 19.21024-68.48512l-57.46688-21.7088z m884.77696 8.88832a468.66432 468.66432 0 0 0-33.9968-74.46528l-53.49376 30.3104c11.75552 20.64384 21.62688 42.27072 29.61408 64.7168l57.87648-20.56192zM156.38528 203.07968a472.55552 472.55552 0 0 0-48.16896 66.23232l52.6336 31.70304c12.288-20.35712 26.29632-39.64928 41.90208-57.63072l-46.36672-40.30464z m716.5952 6.30784a473.9072 473.9072 0 0 0-57.83552-57.9584l-39.56736 47.02208c18.2272 15.31904 35.06176 32.23552 50.3808 50.46272l47.02208-39.5264zM283.2384 100.1472c-23.9616 13.35296-46.6944 28.71296-67.87072 45.91616l38.74816 47.67744c18.47296-14.99136 38.21568-28.34432 58.9824-39.936l-29.85984-53.6576z m464.32256 3.85024a468.7872 468.7872 0 0 0-74.26048-34.69312l-21.01248 57.7536a407.3472 407.3472 0 0 1 64.512 30.14656l30.72-53.20704z m-311.37792-56.9344a467.7632 467.7632 0 0 0-79.42144 20.0704l20.23424 57.99936a406.3232 406.3232 0 0 1 68.97664-17.44896l-9.78944-60.6208zM512 40.96v61.44c24.04352 0 47.75936 2.048 71.0656 6.144l10.56768-60.53888A474.03008 474.03008 0 0 0 512 40.96zM266.24 481.28h491.52v61.44h-491.52z" fill="#4871E4" p-id="7897"></path><path d="M542.72 266.24v491.52h-61.44v-491.52z" fill="#4871E4" p-id="7898"></path></svg>