<?xml version="1.0" standalone="no"?><!DOCTYPE svg PUBLIC "-//W3C//DTD SVG 1.1//EN" "http://www.w3.org/Graphics/SVG/1.1/DTD/svg11.dtd"><svg t="1705655275284" class="icon" viewBox="0 0 1024 1024" version="1.1" xmlns="http://www.w3.org/2000/svg" p-id="8151" xmlns:xlink="http://www.w3.org/1999/xlink" width="200" height="200"><path d="M938.21 788.79c0.54-5.54 0.61-11.13-0.2-16.73L845.26 126.4c-4.85-33.79-33.88-59.27-67.53-59.27H235.32c-34.48 0-63.59 26.2-67.74 60.94L90.6 773.75c-0.02 0.14 0.01 0.28 0 0.42-5.68 14.91-8.92 31-8.92 47.88 0 74.48 60.6 135.08 135.09 135.08h590.67c74.49 0 135.08-60.6 135.08-135.08 0-11.5-1.6-22.6-4.31-33.26zM231.96 135.75c0.28-2.37 1.93-3.79 3.37-3.79h542.41c1.6 0 3.05 1.57 3.35 3.66l80.87 562.91c-16.69-7.4-35.11-11.59-54.51-11.59H216.77c-18.33 0-35.81 3.71-51.77 10.35l66.96-561.54z m575.48 756.54H216.77c-38.74 0-70.26-31.51-70.26-70.25s31.52-70.26 70.26-70.26h590.67c38.74 0 70.25 31.52 70.25 70.26s-31.51 70.25-70.25 70.25z" fill="#666666" p-id="8152"></path><path d="M829.86 791.5h-87.21c-17.9 0-32.42 14.51-32.42 32.42s14.51 32.42 32.42 32.42h87.21c17.9 0 32.42-14.51 32.42-32.42s-14.52-32.42-32.42-32.42zM408.63 552.62h213.03c48.78 0 88.47-39.69 88.47-88.47v-10.07c0-42.06-29.56-77.21-68.95-86.15-9.68-63.43-64.44-112.23-130.53-112.23-67.11 0-122.57 50.3-130.98 115.16-34.53 12.06-59.53 44.61-59.53 83.22v10.07c0.01 48.78 39.7 88.47 88.49 88.47z m102.03-232.08c37.14 0 67.37 30.22 67.37 67.37h0.17c-1.06 3.2-1.77 6.56-1.77 10.11 0 17.91 14.51 32.42 32.42 32.42h12.81c13.03 0 23.64 10.61 23.64 23.65v10.07c0 13.03-10.61 23.64-23.64 23.64H408.63c-13.03 0-23.64-10.61-23.64-23.64v-10.07c0-13.04 10.61-23.65 23.64-23.65h4.07c17.91 0 32.42-14.51 32.42-32.42 0-3.61-0.73-7.01-1.81-10.25 0.07-37.09 30.25-67.23 67.35-67.23z" fill="#666666" p-id="8153"></path></svg>