<?xml version="1.0" standalone="no"?><!DOCTYPE svg PUBLIC "-//W3C//DTD SVG 1.1//EN" "http://www.w3.org/Graphics/SVG/1.1/DTD/svg11.dtd"><svg t="1718162222543" class="icon" viewBox="0 0 1024 1024" version="1.1" xmlns="http://www.w3.org/2000/svg" p-id="9061" xmlns:xlink="http://www.w3.org/1999/xlink" width="200" height="200"><path d="M176 112a8 8 0 0 1 8 8v720h720a8 8 0 0 1 8 8v56a8 8 0 0 1-8 8H120a8 8 0 0 1-8-8V120a8 8 0 0 1 8-8h56z m182 400a8 8 0 0 1 8 8v208a8 8 0 0 1-8 8h-64a8 8 0 0 1-8-8V520a8 8 0 0 1 8-8h64z m182-224a8 8 0 0 1 8 8v432a8 8 0 0 1-8 8h-64a8 8 0 0 1-8-8V296a8 8 0 0 1 8-8h64z m182 112a8 8 0 0 1 8 8v320a8 8 0 0 1-8 8h-64a8 8 0 0 1-8-8V408a8 8 0 0 1 8-8h64z m182-112a8 8 0 0 1 8 8v432a8 8 0 0 1-8 8h-64a8 8 0 0 1-8-8V296a8 8 0 0 1 8-8h64z" fill="#D8D8D8" p-id="9062"></path></svg>