<?xml version="1.0" standalone="no"?><!DOCTYPE svg PUBLIC "-//W3C//DTD SVG 1.1//EN" "http://www.w3.org/Graphics/SVG/1.1/DTD/svg11.dtd"><svg t="1710828311742" class="icon" viewBox="0 0 1024 1024" version="1.1" xmlns="http://www.w3.org/2000/svg" p-id="2411" xmlns:xlink="http://www.w3.org/1999/xlink" width="200" height="200"><path d="M511.439241 51.187094c14.705726 0 29.349402 0.682544 43.931028 2.109682s28.853006 3.474771 43.434632 6.204947a426.46604 426.46604 0 0 1 62.980217 16.877457c3.412721 1.17894 6.887492 2.41993 10.300213 3.722969l1.923533 0.682544a3.474771 3.474771 0 0 0 1.303039 0.496396c0.806643 0 0.868693-1.675336 1.17894-2.41993l15.574419-41.2629 1.613286-4.219365a533.625483 533.625483 0 0 0-53.052301-16.691308 501.918201 501.918201 0 0 0-54.231241-11.106856 492.67283 492.67283 0 0 0-55.844527-5.212156 510.481029 510.481029 0 0 0-56.651171 0.992791 510.418979 510.418979 0 0 0-109.393224 20.16608 499.498272 499.498272 0 0 0-51.376965 18.614842 525.434952 525.434952 0 0 0-48.957035 23.7029 515.010641 515.010641 0 0 0-88.048205 61.36693 338.790132 338.790132 0 0 0-10.114064 8.997174l26.557175 29.101204 6.577244 7.197739c0.372297 0.496396 0.992792 1.675336 1.675336 1.303039a14.457528 14.457528 0 0 0 1.799435-1.675336 469.466326 469.466326 0 0 1 110.199867-73.714776 489.632405 489.632405 0 0 1 72.225588-27.612016A465.122863 465.122863 0 0 1 501.139028 51.311193h9.617668z" fill="#959595" p-id="2412"></path><path d="M53.203869 470.145147l-39.897812-3.598869-11.168905-0.992792a509.674386 509.674386 0 0 0-1.24099 75.079865 515.010641 515.010641 0 0 0 9.679718 74.459369 523.201171 523.201171 0 0 0 19.855832 70.426154 515.010641 515.010641 0 0 0 68.254422 128.690611c1.675336 2.295831 3.412721 4.71576 5.212156 7.01159l31.645232-23.951097c2.481979-1.923534 5.026007-3.909117 7.570036-5.708551 0.620495-0.372297 1.675336-0.806643 1.17894-1.675336a33.879013 33.879013 0 0 0-2.29583-2.978375q-5.708552-7.632085-11.106856-15.574418a473.995938 473.995938 0 0 1-37.229685-65.710394 456.932332 456.932332 0 0 1-41.573148-225.798039c0-3.226573 0.372297-6.204947 0.682544-9.36947z m458.793817 501.856152a454.450353 454.450353 0 0 1-54.665587-3.288622 530.833257 530.833257 0 0 1-26.681275-3.971166s-1.489187-0.496396-1.799434 0-0.372297 1.489187-0.496396 2.109682c0 2.109682-0.806643 4.219364-1.17894 6.204947l-2.41993 13.092439c-1.799435 9.617669-3.59887 19.173288-5.274205 28.790957a513.459404 513.459404 0 0 0 74.149122 8.19053 505.951417 505.951417 0 0 0 74.831667-2.792226 517.740817 517.740817 0 0 0 72.908133-13.588835 501.732053 501.732053 0 0 0 69.61951-23.764949 527.854882 527.854882 0 0 0 64.035058-32.575974c2.606078-1.613286 5.212156-3.102474 7.694135-4.71576l-16.256962-26.06078c-2.668127-4.405513-5.398304-8.686926-8.190531-13.092439l-1.923534-2.978375c-0.372297-0.620495-0.496396-1.489187-1.303039-0.992791l-5.026007 3.102474a465.371061 465.371061 0 0 1-53.362548 27.798164 476.229719 476.229719 0 0 1-56.837319 20.662475 456.063639 456.063639 0 0 1-120.50008 18.180497h-7.383888z m492.176434-598.653332a505.330922 505.330922 0 0 0-26.557176-72.659935c-2.978375-6.577244-6.204947-13.092439-9.36947-19.607634l-40.083961 20.166079-4.405513 2.171732s-1.116891 0-1.17894 0.682544 0 0.806643 0.372297 0.992791a358.149568 358.149568 0 0 1 13.278588 28.480709 431.057701 431.057701 0 0 1 25.99873 83.146297c2.978375 14.271379 5.398304 28.853006 7.01159 43.434632a438.689787 438.689787 0 0 1 2.792227 44.365374q0 22.337811-1.489188 44.675622a484.730497 484.730497 0 0 1-5.770601 44.241276q-1.923534 10.920708-4.467562 21.779365a294.11451 294.11451 0 0 1-2.606078 10.61046c-0.496396 1.799435-0.868693 3.59887-1.427138 5.398305s-0.806643 2.295831-0.992792 3.47477 0.992792 0.930742 1.675336 1.116891l4.71576 1.303039 10.796609 2.978375c7.197739 1.985583 14.457528 3.971166 21.655267 6.204947l10.176114 2.916325a500.366964 500.366964 0 0 0 11.7894-52.928202 516.189581 516.189581 0 0 0 6.204947-54.169191 511.101524 511.101524 0 0 0-16.50516-162.321426 144.016831 144.016831 0 0 0-1.675336-6.515195z" fill="#959595" p-id="2413"></path><path d="M515.658605 900.582354a387.561019 387.561019 0 1 1 277.299102-658.344928l-6.204947 5.522404-6.204947 4.963958-0.558446 0.496396-20.972722 17.62205-2.730177 2.295831-1.489187 1.17894-6.763393 5.770601-2.171732 1.799435-0.496396 0.372297-0.372296 0.310247-2.295831 1.923534-1.24099 1.054841-1.240989 1.17894a2.41993 2.41993 0 0 0-0.744594 0.744594l-0.682544 0.434346-0.930742-1.17894a23.516751 23.516751 0 0 0-1.985583-1.985583l-4.839859-4.219365c-3.226573-2.978375-6.204947-6.204947-9.679718-8.748976l-5.150107 6.204948-0.558445 0.682544-3.102474 3.59887-6.204947 6.825442-2.481979 2.854276-0.620495 0.744593-4.157315 4.715761a6.204947 6.204947 0 0 0-1.240989 1.427137v0.744594l3.909117 3.412721 0.930742 0.806643c2.730177 2.481979 5.522403 5.088057 8.066431 7.694135q-29.287352 24.81979-58.822902 49.63958l-59.133149 49.63958-33.258519 27.860214-2.481979 2.047633-17.870248 14.953923-5.398305 4.529612a72.163539 72.163539 0 0 1-3.47477 2.916325l-0.434346 0.372297a3.350672 3.350672 0 0 1-0.744594 0.620495 1.923534 1.923534 0 0 1-1.054841 0 39.215268 39.215268 0 0 0-8.438729-2.109682h-0.620495a54.231241 54.231241 0 0 0-7.135689-1.489188 50.75647 50.75647 0 0 0-38.346576 17.311804 50.81852 50.81852 0 0 0-4.529611 61.615128 51.252866 51.252866 0 0 0 42.876187 23.268553 51.501064 51.501064 0 0 0 40.952653-20.538376 50.942619 50.942619 0 0 0 10.238164-31.769331 32.762123 32.762123 0 0 0 0-4.529612v-0.372297a3.350672 3.350672 0 0 0 0-1.054841l-0.620495-0.496395a3.226573 3.226573 0 0 1 0-1.116891 1.613286 1.613286 0 0 1 0.744593-0.744594l0.682545-0.496395 0.744593-0.682545 0.992792-0.806643 0.992792-0.806643 1.675335-1.551237 0.992792-0.806643c4.71576-3.909117 9.183322-7.632085 13.588835-11.417103l3.102474-2.544029 3.412721-2.854276 5.212156-4.343463 17.497952-15.264171 17.001556-14.271379 17.001556-14.271379 1.613286-1.303039 23.5788-19.793783 58.822903-49.639579 3.47477-2.916326 3.474771-2.916325 5.336255-3.909117 1.551236-1.303039a282.821506 282.821506 0 0 1 26.371027 46.350958 293.307867 293.307867 0 0 1 17.497952 51.873361 284.310693 284.310693 0 0 1 7.07364 55.844527 278.726241 278.726241 0 0 1-4.219364 56.71322c-0.620495 3.660919-1.365088 7.321838-2.109682 10.920707v1.054841l-0.434347 1.923534c-0.434346 1.861484-0.806643 3.785018-1.365088 5.708552a11.603252 11.603252 0 0 0-0.496396 1.675336c0 0.682544 0 0.744594 0.682544 0.868692l6.204948 1.613287 4.467562 1.11689 1.737385 0.434347h1.054841l14.023182 3.598869 5.770601 1.551237h1.054841a303.670129 303.670129 0 0 0 7.570036-39.215268 333.019531 333.019531 0 0 0 2.730177-40.270109 350.145186 350.145186 0 0 0-2.41993-40.518307 312.295006 312.295006 0 0 0-7.507986-39.401417 340.403419 340.403419 0 0 0-12.409895-37.664031 328.055573 328.055573 0 0 0-16.629259-35.43025c-2.730177-5.150106-6.204947-10.67251-9.927916-17.001556l-1.303039-2.047633a133.344321 133.344321 0 0 0-8.562828-12.409895c-0.434346-0.434346-0.806643-0.868693-0.434346-1.365088a3.102474 3.102474 0 0 1 0.806643-0.620495l1.799435-1.365088 6.204947-5.212156 1.613287-1.303039 5.398304-4.591661 2.481979-2.047633 3.660919-3.102474 3.971166-3.350671 2.047633-1.737386 10.920708-9.183322 0.744593-0.558445 14.333429-11.975549a387.623069 387.623069 0 0 1-310.74377 619.377857zM291.411803 683.843538a3.53682 3.53682 0 0 0-0.992792 0.744594l-3.909117 3.040424-15.884665 12.409895-2.916325 2.233781-4.591661 3.53682a318.872251 318.872251 0 0 0 52.804103 53.672796 320.485537 320.485537 0 0 0 31.024737 21.903465 305.097267 305.097267 0 0 0 33.320568 18.056397 336.618401 336.618401 0 0 0 35.554349 14.085231l2.419929 0.806643 1.799435 0.558445a321.168081 321.168081 0 0 0 60.560288 12.409895 324.580802 324.580802 0 0 0 33.754914 1.737385c9.679718 0 19.297387-0.434346 28.604808-1.303039a284.931188 284.931188 0 0 0 34.809755-5.088057l-3.909117-19.483535-0.806643-3.971166-1.116891-5.522403-0.434346-2.295831-1.11689-2.047633a6.204947 6.204947 0 0 1 0-0.620494c0-0.620495 0-1.17894-0.806644-1.17894a14.705726 14.705726 0 0 0-2.047632 0.372297h-0.868693l-4.77781 0.930742c-2.916325 0.558445-6.204947 0.992792-9.927915 1.489187a314.776985 314.776985 0 0 1-38.098378 2.606078c-6.204947 0-13.774983 0-20.786574-0.744594a276.554509 276.554509 0 0 1-75.452161-16.132863 267.929632 267.929632 0 0 1-34.561558-15.264171 276.43041 276.43041 0 0 1-32.079578-19.669683 264.020515 264.020515 0 0 1-28.790957-23.578801 280.02928 280.02928 0 0 1-25.750532-27.487917l-1.861484-2.481979-1.11689-1.427138-0.682545-0.930742a11.665301 11.665301 0 0 0-1.054841-1.365089z m220.213586-325.635643A153.324252 153.324252 0 0 0 382.500432 594.492295a156.240577 156.240577 0 0 0 44.613572 45.234067 153.138104 153.138104 0 0 0 60.436189 23.330602 150.345877 150.345877 0 0 0 24.137245 1.923534 153.324252 153.324252 0 0 0 140.231813-91.088629 145.25782 145.25782 0 0 0 5.770602-15.078022l-2.916326-0.930742-3.971166-1.303039-7.694135-2.41993-3.226573-1.054841-1.17894-0.372297-1.11689-0.434346-1.427138-0.434346h-0.806643l-1.17894-0.372297-4.71576-1.861485h-0.806644l-0.434346 0.558446a23.64085 23.64085 0 0 1-0.744594 2.29583l-0.930742 2.41993c-0.434346 1.365088-0.992792 2.668127-1.489187 3.971166a120.686228 120.686228 0 0 1-6.204948 12.844241 122.361564 122.361564 0 0 1-86.869264 61.118733 123.354356 123.354356 0 0 1-57.271666-3.971166 124.09895 124.09895 0 0 1-77.313645-72.597886 122.671812 122.671812 0 0 1-7.880283-56.278873 123.044108 123.044108 0 0 1 55.47223-91.398877 122.671812 122.671812 0 0 1 52.121559-18.614842 134.64736 134.64736 0 0 1 14.643676-0.806643z m0.620495-164.120861h-6.763393c-3.722968 0-6.887492 0-9.927916 0.372297-6.204947 0.372297-13.154489 0.992792-19.979931 1.799435a337.052747 337.052747 0 0 0-38.780922 7.135689 316.452321 316.452321 0 0 0-71.791242 27.487918 319.492746 319.492746 0 0 0-32.451875 19.917881 310.247374 310.247374 0 0 0-29.5976 23.392652 302.367091 302.367091 0 0 0-26.557175 26.557175 315.521579 315.521579 0 0 0-23.392652 29.721699 331.654443 331.654443 0 0 0-19.669683 32.265726l-1.489188 2.916326c-1.054841 2.047633-2.047633 3.847067-2.916325 5.708551l6.887492 3.412722h0.310247l9.183322 4.529611 2.41993 1.17894 5.522403 2.792227 2.109682 0.992791c1.551237 0.744594 3.350672 1.551237 4.963958 2.481979a1.923534 1.923534 0 0 0 0.930742 0.434347 0.620495 0.620495 0 0 0 0.558446-0.372297 5.460354 5.460354 0 0 0 0.620494-1.24099l0.372297-0.868692 1.799435-3.660919 1.737385-3.412722c2.854276-5.398304 5.708552-10.300213 8.748976-14.953923A279.719032 279.719032 0 0 1 435.614782 241.430783a285.86193 285.86193 0 0 1 69.929758-10.54841h8.190531v-30.528342-1.613286V195.203925c0-0.682544 0-1.054841-0.930742-1.116891z" fill="#959595" p-id="2414"></path></svg>