<?xml version="1.0" standalone="no"?><!DOCTYPE svg PUBLIC "-//W3C//DTD SVG 1.1//EN" "http://www.w3.org/Graphics/SVG/1.1/DTD/svg11.dtd"><svg t="1710817947932" class="icon" viewBox="0 0 1024 1024" version="1.1" xmlns="http://www.w3.org/2000/svg" p-id="4273" xmlns:xlink="http://www.w3.org/1999/xlink" width="200" height="200"><path d="M535.1424 118.1184c201.216 7.3216 362.5984 167.7312 369.9712 367.616h92.4672c14.592 0 26.4192 11.776 26.4192 26.2656a26.3168 26.3168 0 0 1-26.4192 26.2656h-92.4672a397.7216 397.7216 0 0 1-112.3328 256 388.6592 388.6592 0 0 1-257.6384 111.616v91.8528a26.3168 26.3168 0 0 1-26.4192 26.2656 26.3168 26.3168 0 0 1-26.4192-26.2656v-91.8528a402.7392 402.7392 0 0 1-257.6896-111.616 383.8464 383.8464 0 0 1-112.3328-256H19.8144C6.912 538.2656 0 525.4144 0 512a28.3136 28.3136 0 0 1 26.4192-26.2656h85.8624C119.7056 285.8496 281.088 125.44 482.304 118.1184V26.2656c0-14.5408 11.776-26.2656 26.4192-26.2656 14.592 0 26.4192 11.776 26.4192 26.2656v91.8528zM512 460.8a51.2 51.2 0 1 1-51.2 51.2 55.04 55.04 0 0 1 51.2-51.0976V460.8z m174.8992 3.4816a180.0192 180.0192 0 0 1-82.5856 200.3456 175.8208 175.8208 0 0 1-212.992-27.136 159.0784 159.0784 0 0 1-56.9856-121.5488 179.712 179.712 0 0 1 50.5856-128 209.8688 209.8688 0 0 1 132.9664-57.4976 177.5104 177.5104 0 0 1 169.0112 133.8368z m-241.8688-59.904A128 128 0 1 0 642.1504 512a119.808 119.808 0 0 0-35.328-88.2176 128 128 0 0 0-161.792-19.456zM511.9488 204.8A304.8448 304.8448 0 0 0 294.4 294.4 333.824 333.824 0 0 0 204.8 511.8464a304.64 304.64 0 0 0 89.6 217.6512A294.0928 294.0928 0 0 0 512 819.2 305.9712 305.9712 0 0 0 819.2 512a333.824 333.824 0 0 0-89.6512-217.7024A334.0288 334.0288 0 0 0 511.9488 204.8z" p-id="4274"></path></svg>