<?xml version="1.0" encoding="utf-8"?>
<!-- Generator: Adobe Illustrator 27.3.1, SVG Export Plug-In . SVG Version: 6.00 Build 0)  -->
<svg version="1.1" id="_图层_1" xmlns="http://www.w3.org/2000/svg" xmlns:xlink="http://www.w3.org/1999/xlink" x="0px" y="0px"
	 viewBox="0 0 200 200" style="enable-background:new 0 0 200 200;" xml:space="preserve">
<style type="text/css">
	.st0{clip-path:url(#SVGID_00000088811714028033233670000010659110550743140261_);}
	.st1{fill:#FFDCEE;}
	.st2{fill:#434260;}
	.st3{font-family:'SimHei';}
	.st4{font-size:72.3944px;}
</style>
<g>
	<g>
		<defs>
			<rect id="SVGID_1_" width="200" height="200"/>
		</defs>
		<clipPath id="SVGID_00000002368578430559076600000013661464641162899887_">
			<use xlink:href="#SVGID_1_"  style="overflow:visible;"/>
		</clipPath>
		<g style="clip-path:url(#SVGID_00000002368578430559076600000013661464641162899887_);">
			<path class="st1" d="M0,133.9c0,23.2,12.4,44.6,32.5,56.2c20.1,11.6,44.9,11.6,65,0c20.1-11.6,32.5-33,32.5-56.2
				c0-23.2-12.4-44.6-32.5-56.2c-20.1-11.6-44.9-11.6-65,0S0,110.7,0,133.9L0,133.9z"/>
		</g>
	</g>
	<path class="st2" d="M172.3,199.8H47.4c-15.2,0-27.5-12.3-27.5-27.4V27.6C20,12.4,32.3,0.2,47.4,0.1h100.8c4.6,0,9.1,1.8,12.3,5
		l37,37c1.5,1.4,2.3,3.4,2.2,5.4v124.8C199.8,187.5,187.5,199.7,172.3,199.8L172.3,199.8L172.3,199.8z M47.4,15.1
		c-6.9,0-12.5,5.6-12.5,12.5v144.7c0,3.3,1.3,6.5,3.7,8.8c2.3,2.3,5.5,3.7,8.8,3.7h124.9c3.3,0,6.5-1.3,8.8-3.7
		c2.3-2.3,3.7-5.5,3.7-8.8V50.6l-35-34.9c-0.5-0.4-1-0.6-1.6-0.6H47.4z"/>
</g>
<text transform="matrix(1.2013 0 0 1 41.2309 130.0854)" class="st2 st3 st4">CIE</text>
</svg>
