<?xml version="1.0" encoding="utf-8"?>
<!-- Generator: Adobe Illustrator 27.3.1, SVG Export Plug-In . SVG Version: 6.00 Build 0)  -->
<svg version="1.1" id="_图层_1" xmlns="http://www.w3.org/2000/svg" xmlns:xlink="http://www.w3.org/1999/xlink" x="0px" y="0px"
	 viewBox="0 0 200 200" style="enable-background:new 0 0 200 200;" xml:space="preserve">
<style type="text/css">
	.st0{clip-path:url(#SVGID_00000045581955710250124390000003657628197906468273_);}
	.st1{fill:#FFDCEE;}
	.st2{fill:#434260;}
	.st3{enable-background:new    ;}
</style>
<g>
	<g>
		<g>
			<defs>
				<rect id="SVGID_1_" width="200" height="200"/>
			</defs>
			<clipPath id="SVGID_00000008845971548686009020000005659259108685963906_">
				<use xlink:href="#SVGID_1_"  style="overflow:visible;"/>
			</clipPath>
			<g style="clip-path:url(#SVGID_00000008845971548686009020000005659259108685963906_);">
				<path class="st1" d="M0,133.9c0,23.2,12.4,44.6,32.5,56.2c20.1,11.6,44.9,11.6,65,0s32.5-33,32.5-56.2s-12.4-44.6-32.5-56.2
					s-44.9-11.6-65,0S0,110.7,0,133.9L0,133.9z"/>
			</g>
		</g>
	</g>
	<path class="st2" d="M172.3,199.8H47.4c-15.2,0-27.5-12.3-27.5-27.4V27.6C20,12.4,32.3,0.2,47.4,0.1h100.8c4.6,0,9.1,1.8,12.3,5
		l37,37c1.5,1.4,2.3,3.4,2.2,5.4v124.8C199.8,187.5,187.5,199.7,172.3,199.8L172.3,199.8L172.3,199.8z M47.4,15.1
		c-6.9,0-12.5,5.6-12.5,12.5v144.7c0,3.3,1.3,6.5,3.7,8.8c2.3,2.3,5.5,3.7,8.8,3.7h124.9c3.3,0,6.5-1.3,8.8-3.7
		c2.3-2.3,3.7-5.5,3.7-8.8V50.6l-35-34.9c-0.5-0.4-1-0.6-1.6-0.6C148.2,15.1,47.4,15.1,47.4,15.1z"/>
</g>
<g>
	<g class="st3">
		<path class="st2" d="M46.3,118.1V84.8h5.6v33.3H46.3z M46.3,89.3v-4.5h26.5v4.5H46.3z M46.3,105.1v-4.5h21.4v4.5H46.3z"/>
		<path class="st2" d="M77.8,87v-4.1h9.3V87H77.8z M96.4,118.6c-3.5,0-6-0.8-7.5-2.3c-1.5-1.6-2.3-4.1-2.3-7.5V82.9h6v25.5
			c0,1.3,0.1,2.4,0.5,3.2c0.3,0.8,0.9,1.4,1.8,1.8c0.9,0.4,2.2,0.6,3.9,0.6c1.6,0,3.5-0.3,6-0.9l0.7,4.4c-1.5,0.3-3,0.6-4.4,0.8
			C99.5,118.5,98,118.6,96.4,118.6z"/>
		<path class="st2" d="M125.7,118.6c-4.1,0-7.3-1.1-9.6-3.4s-3.4-5.4-3.4-9.5c0-4.1,1.1-7.3,3.4-9.5s5.5-3.4,9.6-3.4
			c4.1,0,7.4,1.1,9.6,3.4c2.3,2.2,3.4,5.4,3.4,9.5c0,4.1-1.1,7.3-3.4,9.5C133.1,117.4,129.8,118.6,125.7,118.6z M125.7,114.1
			c2.2,0,3.9-0.7,5.1-2.2c1.2-1.5,1.8-3.5,1.8-6.2c0-2.7-0.6-4.8-1.8-6.2c-1.2-1.5-2.9-2.2-5.1-2.2s-3.9,0.7-5.1,2.2
			c-1.2,1.5-1.8,3.5-1.8,6.2c0,2.7,0.6,4.8,1.8,6.2C121.8,113.4,123.5,114.1,125.7,114.1z"/>
		<path class="st2" d="M147.9,118.1l-3.4-24.8h5.6l2.3,21.1h0.5l3.5-21.1h5.5l-2.5,5.1H159l-3.5,19.7H147.9z M162.9,118.1l-3.5-19.7
			h-0.5l-2.4-5.1h5.5l3.5,21.1h0.5l2.5-21.1h5.9l-4.2,24.8H162.9z"/>
	</g>
</g>
<rect x="945" y="560" style="fill:none;" width="12" height="3"/>
</svg>
